<svg width="22" height="6" viewBox="0 0 22 6" fill="none" xmlns="http://www.w3.org/2000/svg">
<path fill-rule="evenodd" clip-rule="evenodd" d="M0 2.75C0 4.26878 1.23122 5.5 2.75 5.5C4.26878 5.5 5.5 4.26878 5.5 2.75C5.5 1.23122 4.26878 -4.76837e-07 2.75 -4.76837e-07C1.23122 -4.76837e-07 0 1.23122 0 2.75ZM2.75 4C2.05964 4 1.5 3.44036 1.5 2.75C1.5 2.05964 2.05964 1.5 2.75 1.5C3.44036 1.5 4 2.05964 4 2.75C4 3.44036 3.44036 4 2.75 4Z" fill="#3C41F0"/>
<path fill-rule="evenodd" clip-rule="evenodd" d="M8 2.75C8 4.26878 9.23122 5.5 10.75 5.5C12.2688 5.5 13.5 4.26878 13.5 2.75C13.5 1.23122 12.2688 0 10.75 0C9.23122 0 8 1.23122 8 2.75ZM10.75 4C10.0596 4 9.5 3.44036 9.5 2.75C9.5 2.05964 10.0596 1.5 10.75 1.5C11.4404 1.5 12 2.05964 12 2.75C12 3.44036 11.4404 4 10.75 4Z" fill="#3C41F0"/>
<path fill-rule="evenodd" clip-rule="evenodd" d="M16 2.75C16 4.26878 17.2312 5.5 18.75 5.5C20.2688 5.5 21.5 4.26878 21.5 2.75C21.5 1.23122 20.2688 0 18.75 0C17.2312 0 16 1.23122 16 2.75ZM18.75 4C18.0596 4 17.5 3.44036 17.5 2.75C17.5 2.05964 18.0596 1.5 18.75 1.5C19.4404 1.5 20 2.05964 20 2.75C20 3.44036 19.4404 4 18.75 4Z" fill="#3C41F0"/>
</svg>
