<svg width="21" height="21" viewBox="0 0 21 21" fill="none" xmlns="http://www.w3.org/2000/svg">
<path d="M7.5 19L10.1727 14.2714C10.3024 14.0419 10.4163 13.8404 10.5182 13.6622M10.5182 13.6622C10.8341 13.1097 11.035 12.7806 11.2358 12.5336C12.8978 10.4885 15.8618 10.0845 18.0106 11.6101C18.3516 11.8522 18.7309 12.2309 19.485 12.985M10.5182 13.6622L10 13.5C8.80448 13.2609 8.20672 13.1413 7.65808 13.153C6.18985 13.1842 4.80956 13.8593 3.88354 14.9991C3.53751 15.425 3.26489 15.9702 2.71965 17.0607L2.60982 17.2804L2.48875 17.4849M19.485 12.985C19.5 12.2605 19.5 11.439 19.5 10.5C19.5 6.75027 19.5 4.8754 18.5451 3.56107C18.2367 3.1366 17.8634 2.76331 17.4389 2.45491C16.1246 1.5 14.2497 1.5 10.5 1.5C6.75027 1.5 4.8754 1.5 3.56107 2.45491C3.1366 2.76331 2.76331 3.1366 2.45491 3.56107C1.5 4.8754 1.5 6.75027 1.5 10.5C1.5 14.2497 1.5 16.1246 2.45491 17.4389C2.46611 17.4543 2.47738 17.4697 2.48875 17.4849M19.485 12.985C19.4401 15.1536 19.2609 16.4537 18.5451 17.4389C18.2367 17.8634 17.8634 18.2367 17.4389 18.5451C16.1246 19.5 14.2497 19.5 10.5 19.5C6.75027 19.5 4.8754 19.5 3.56107 18.5451C3.152 18.2479 2.79047 17.8904 2.48875 17.4849M7.5 7.5C7.5 8.60457 8.39543 9.5 9.5 9.5C10.6046 9.5 11.5 8.60457 11.5 7.5C11.5 6.39543 10.6046 5.5 9.5 5.5C8.39543 5.5 7.5 6.39543 7.5 7.5Z" stroke="#5D70F9" stroke-width="1.5" stroke-linecap="round"/>
</svg>
