<svg width="25" height="24" viewBox="0 0 25 24" fill="none" xmlns="http://www.w3.org/2000/svg">
<path d="M9.5 22H15.5C20.5 22 22.5 20 22.5 15V9C22.5 4 20.5 2 15.5 2H9.5C4.5 2 2.5 4 2.5 9V15C2.5 20 4.5 22 9.5 22Z" stroke="#5D70F9" stroke-width="1.5" stroke-linecap="round" stroke-linejoin="round"/>
<path d="M16.0699 18.5016V14.6016" stroke="#5D70F9" stroke-width="1.5" stroke-miterlimit="10" stroke-linecap="round" stroke-linejoin="round"/>
<path d="M16.0699 7.45V5.5" stroke="#5D70F9" stroke-width="1.5" stroke-miterlimit="10" stroke-linecap="round" stroke-linejoin="round"/>
<path d="M16.07 12.6492C17.5059 12.6492 18.67 11.4852 18.67 10.0492C18.67 8.61328 17.5059 7.44922 16.07 7.44922C14.634 7.44922 13.47 8.61328 13.47 10.0492C13.47 11.4852 14.634 12.6492 16.07 12.6492Z" stroke="#5D70F9" stroke-width="1.5" stroke-miterlimit="10" stroke-linecap="round" stroke-linejoin="round"/>
<path d="M8.93005 18.5008V16.5508" stroke="#5D70F9" stroke-width="1.5" stroke-miterlimit="10" stroke-linecap="round" stroke-linejoin="round"/>
<path d="M8.93005 9.4V5.5" stroke="#5D70F9" stroke-width="1.5" stroke-miterlimit="10" stroke-linecap="round" stroke-linejoin="round"/>
<path d="M8.92996 16.5516C10.3659 16.5516 11.53 15.3875 11.53 13.9516C11.53 12.5156 10.3659 11.3516 8.92996 11.3516C7.49402 11.3516 6.32996 12.5156 6.32996 13.9516C6.32996 15.3875 7.49402 16.5516 8.92996 16.5516Z" stroke="#5D70F9" stroke-width="1.5" stroke-miterlimit="10" stroke-linecap="round" stroke-linejoin="round"/>
</svg>
