<svg width="13" height="13" viewBox="0 0 13 13" fill="none" xmlns="http://www.w3.org/2000/svg">
<path d="M8.7001 4.10156C9.03156 4.10156 9.3001 4.4597 9.3001 4.90156C9.3001 5.34343 9.03156 5.70156 8.7001 5.70156C8.36863 5.70156 8.1001 5.34343 8.1001 4.90156C8.1001 4.4597 8.36863 4.10156 8.7001 4.10156Z" fill="#5D70F9"/>
<path d="M5.29743 4.90156C5.29743 4.45943 5.02943 4.10156 4.69876 4.10156C4.3681 4.10156 4.1001 4.45943 4.1001 4.90156C4.1001 5.3437 4.36676 5.70156 4.69876 5.70156C5.03076 5.70156 5.29743 5.3437 5.29743 4.90156Z" fill="#5D70F9"/>
<path fill-rule="evenodd" clip-rule="evenodd" d="M6.5049 7.8421C7.62242 7.8421 8.63293 7.60045 9.35871 7.42689C10.0676 7.25736 10.5049 7.15279 10.5049 7.40183C10.5049 9.61097 8.71404 11.4018 6.5049 11.4018C4.29576 11.4018 2.5049 9.61097 2.5049 7.40183C2.5049 7.15279 2.94217 7.25736 3.65108 7.42689C4.37687 7.60045 5.38738 7.8421 6.5049 7.8421ZM8.97684 8.20754C8.41809 8.35374 7.56167 8.57783 6.5001 8.57783C5.43852 8.57783 4.58211 8.35374 4.02335 8.20754C3.55889 8.08601 3.3001 8.01829 3.3001 8.17783C3.3001 9.70903 5.6265 9.77783 6.5001 9.77783C7.4809 9.77783 9.7001 9.70876 9.7001 8.17783C9.7001 8.01829 9.44131 8.08601 8.97684 8.20754Z" fill="#5D70F9"/>
<path fill-rule="evenodd" clip-rule="evenodd" d="M12.9001 6.50156C12.9001 2.96694 10.0347 0.101562 6.5001 0.101562C2.96548 0.101562 0.100098 2.96694 0.100098 6.50156C0.100098 10.0362 2.96548 12.9016 6.5001 12.9016C10.0347 12.9016 12.9001 10.0362 12.9001 6.50156ZM12.1084 6.50156C12.1084 3.40877 9.60116 0.901563 6.50836 0.901563C3.41557 0.901563 0.908364 3.40877 0.908364 6.50156C0.908364 9.59436 3.41557 12.1016 6.50836 12.1016C9.60116 12.1016 12.1084 9.59436 12.1084 6.50156Z" fill="#5D70F9"/>
</svg>
